# xmcd CD database file
#
# Track frame offsets:
#	150
#	741
#	45625
#	82151
#	103096
#	152820
#	174916
#	207231
#	243896
#
# Disc length: 3873 seconds
#
# Revision: 0
# Processed by: cddbd v1.5.1PL0 Copyright (c) Steve Scherf et al.
# Submitted via: CDex 1.50
#
DISCID=6a0f1f09
DTITLE=Larry Coryell - Live In Chicago
DYEAR=2003
DGENRE=Jazz
TTITLE0=Spoken Intro
TTITLE1=Autumn Leaves
TTITLE2=Black Orpheus
TTITLE3=Love Is Here To Stay
TTITLE4=Star Eyes
TTITLE5=Something
TTITLE6=Bumpin' On Sunset
TTITLE7=Good Citizen Swallow
TTITLE8=Bag's Groove
EXTD=YEAR: 2003
EXTT0=
EXTT1=
EXTT2=
EXTT3=
EXTT4=
EXTT5=
EXTT6=
EXTT7=
EXTT8=
PLAYORDER=
